<svg xmlns="http://www.w3.org/2000/svg" viewBox="0 0 32 32" width="32" height="32">
  <defs>
    <linearGradient id="grad" x1="0%" y1="0%" x2="100%" y2="100%">
      <stop offset="0%" style="stop-color:#00C9FF;stop-opacity:1" />
      <stop offset="50%" style="stop-color:#4A90E2;stop-opacity:1" />
      <stop offset="100%" style="stop-color:#00E676;stop-opacity:1" />
    </linearGradient>
    <clipPath id="circle">
      <circle cx="16" cy="16" r="15"/>
    </clipPath>
  </defs>
  <!-- Outer circle background -->
  <circle cx="16" cy="16" r="15" fill="url(#grad)" />
  <!-- S-curve cutout shape (transparent center) -->
  <path d="M16 3
    C10 3, 5 7.5, 5 13
    C5 16, 7 18, 10 19
    L13 20
    C15 20.5, 16 21.5, 16 23
    C16 26, 13 28, 10 28
    L22 28
    C26 28, 27 24, 27 22
    C27 19, 25 17, 22 16
    L19 15
    C17 14.5, 16 13.5, 16 12
    C16 9, 19 7, 22 7
    Z"
    fill="rgba(0,0,0,0.55)" clip-path="url(#circle)" />
</svg>
